<svg width="75" height="76" viewBox="0 0 75 76" fill="none" xmlns="http://www.w3.org/2000/svg">
<path d="M50.3687 55.0357L37.1737 58.5886L23.9785 55.0357L20.9336 22.0482H53.414L50.3687 55.0357Z" fill="#2062AF"/>
<path d="M37.1736 24.7202V55.7549L37.2034 55.763L47.8816 52.8876L50.3463 24.7202H37.1736Z" fill="#3C9CD7"/>
<path d="M29.685 17.2017V15.2383H32.5496V13.0898H27.5366V19.1622H32.5496V17.2017H29.685ZM37.7027 15.2383H39.7055V13.0898H34.6919V15.2383C35.3627 15.909 35.7125 16.2301 36.6826 17.2001C36.1155 17.2001 34.6919 17.2022 34.6919 17.2021V19.1622H39.7055V17.2017L37.7027 15.2383ZM44.8085 15.2383H46.8112V13.0898H41.7974V15.2383C42.4682 15.909 42.8182 16.2301 43.7883 17.2001C43.2214 17.2001 41.7974 17.2022 41.7974 17.2021V19.1622H46.8113V17.2017L44.8085 15.2383Z" fill="black"/>
<path d="M37.1619 32.9683L27.7178 36.9016L28.031 40.7957L37.1619 36.8917L46.8748 32.739L47.2775 28.7554L37.1619 32.9683Z" fill="white"/>
<path d="M27.7177 36.9016L28.0309 40.7958L37.1618 36.8917V32.9684L27.7177 36.9016Z" fill="url(#paint0_linear_405_7)"/>
<path d="M47.2775 28.7555L37.1619 32.9684V36.8917L46.8748 32.739L47.2775 28.7555Z" fill="url(#paint1_linear_405_7)"/>
<path d="M27.7322 36.9016L28.0455 40.7958L42.0557 40.8404L41.7423 46.0326L37.1321 47.3305L32.7004 46.2115L32.4319 42.9888H28.314L28.8512 49.2104L37.1769 51.6721L45.4574 49.2551L46.5317 36.9016H27.7322Z" fill="url(#paint2_linear_405_7)"/>
<path opacity="0.05" d="M37.1619 36.9016H27.7178L28.031 40.7958L37.1619 40.8249V36.9016ZM37.1619 47.3181L37.1171 47.3306L32.686 46.2116L32.4175 42.9889H28.2997L28.8368 49.2105L37.1619 51.6722V47.3181Z" fill="black"/>
<path d="M26.8673 28.7555H47.2775L46.8748 32.7391H27.3596L26.8673 28.7555Z" fill="url(#paint3_linear_405_7)"/>
<path opacity="0.05" d="M37.1619 28.7555H26.8673L27.3596 32.7391H37.1619V28.7555Z" fill="black"/>
<path d="M37.25 2.37651C37.4047 2.28719 37.5953 2.28719 37.75 2.37651L68.226 19.9718C68.3807 20.0611 68.476 20.2262 68.476 20.4048V55.5954C68.476 55.7741 68.3807 55.9391 68.226 56.0284L37.75 73.6237L38.5 74.9228L37.75 73.6237C37.5953 73.7131 37.4047 73.7131 37.25 73.6237L6.77405 56.0284C6.61935 55.9391 6.52405 55.7741 6.52405 55.5954V20.4048C6.52405 20.2262 6.61935 20.0611 6.77405 19.9718L37.25 2.37651Z" stroke="url(#paint4_linear_405_7)" stroke-width="3"/>
<defs>
<linearGradient id="paint0_linear_405_7" x1="32.4398" y1="40.7959" x2="32.4398" y2="32.9685" gradientUnits="userSpaceOnUse">
<stop offset="0.387" stop-color="#D1D3D4" stop-opacity="0"/>
<stop offset="1" stop-color="#D1D3D4"/>
</linearGradient>
<linearGradient id="paint1_linear_405_7" x1="42.2196" y1="36.8918" x2="42.2196" y2="28.7556" gradientUnits="userSpaceOnUse">
<stop offset="0.387" stop-color="#D1D3D4" stop-opacity="0"/>
<stop offset="1" stop-color="#D1D3D4"/>
</linearGradient>
<linearGradient id="paint2_linear_405_7" x1="27.7322" y1="44.287" x2="46.5316" y2="44.287" gradientUnits="userSpaceOnUse">
<stop stop-color="#E8E7E5"/>
<stop offset="1" stop-color="white"/>
</linearGradient>
<linearGradient id="paint3_linear_405_7" x1="26.8673" y1="30.7473" x2="47.2774" y2="30.7473" gradientUnits="userSpaceOnUse">
<stop stop-color="#E8E7E5"/>
<stop offset="1" stop-color="white"/>
</linearGradient>
<linearGradient id="paint4_linear_405_7" x1="69.6429" y1="75.5001" x2="-9.86444" y2="25.1316" gradientUnits="userSpaceOnUse">
<stop stop-color="#0D54BE"/>
<stop offset="1" stop-color="#20ECD3"/>
</linearGradient>
</defs>
</svg>
