<svg width="75" height="76" viewBox="0 0 75 76" fill="none" xmlns="http://www.w3.org/2000/svg">
<path d="M37.25 2.37651C37.4047 2.28719 37.5953 2.28719 37.75 2.37651L68.226 19.9718C68.3807 20.0611 68.476 20.2262 68.476 20.4048V55.5954C68.476 55.7741 68.3807 55.9391 68.226 56.0284L37.75 73.6237L38.5 74.9228L37.75 73.6237C37.5953 73.7131 37.4047 73.7131 37.25 73.6237L6.77405 56.0284C6.61935 55.9391 6.52405 55.7741 6.52405 55.5954V20.4048C6.52405 20.2262 6.61935 20.0611 6.77405 19.9718L37.25 2.37651Z" stroke="url(#paint0_linear_870_27)" stroke-width="3"/>
<g clip-path="url(#clip0_870_27)">
<path d="M37.5 38.5C37.5 36.8203 38.2638 35.2094 39.6235 34.0217C40.9831 32.8339 42.8272 32.1667 44.75 32.1667C46.6728 32.1667 48.5169 32.8339 49.8765 34.0217C51.2362 35.2094 52 36.8203 52 38.5C52 40.1797 51.2362 41.7906 49.8765 42.9784C48.5169 44.1661 46.6728 44.8334 44.75 44.8334C42.8272 44.8334 40.9831 44.1661 39.6235 42.9784C38.2638 41.7906 37.5 40.1797 37.5 38.5Z" fill="#1ABCFE"/>
<path d="M23 51.1666C23 49.4869 23.7638 47.876 25.1235 46.6883C26.4831 45.5006 28.3272 44.8333 30.25 44.8333H37.5V51.1666C37.5 52.8464 36.7362 54.4573 35.3765 55.645C34.0169 56.8327 32.1728 57.5 30.25 57.5C28.3272 57.5 26.4831 56.8327 25.1235 55.645C23.7638 54.4573 23 52.8464 23 51.1666V51.1666Z" fill="#0ACF83"/>
<path d="M37.5 19.5V32.1667H44.75C46.6728 32.1667 48.5169 31.4994 49.8765 30.3117C51.2362 29.1239 52 27.513 52 25.8333C52 24.1536 51.2362 22.5427 49.8765 21.355C48.5169 20.1673 46.6728 19.5 44.75 19.5H37.5Z" fill="#FF7262"/>
<path d="M23 25.8333C23 27.513 23.7638 29.1239 25.1235 30.3117C26.4831 31.4994 28.3272 32.1667 30.25 32.1667H37.5V19.5H30.25C28.3272 19.5 26.4831 20.1673 25.1235 21.355C23.7638 22.5427 23 24.1536 23 25.8333V25.8333Z" fill="#F24E1E"/>
<path d="M23 38.5C23 40.1797 23.7638 41.7906 25.1235 42.9784C26.4831 44.1661 28.3272 44.8334 30.25 44.8334H37.5V32.1667H30.25C28.3272 32.1667 26.4831 32.8339 25.1235 34.0217C23.7638 35.2094 23 36.8203 23 38.5V38.5Z" fill="#A259FF"/>
</g>
<defs>
<linearGradient id="paint0_linear_870_27" x1="69.6429" y1="75.5001" x2="-9.86444" y2="25.1316" gradientUnits="userSpaceOnUse">
<stop stop-color="#0D54BE"/>
<stop offset="1" stop-color="#20ECD3"/>
</linearGradient>
<clipPath id="clip0_870_27">
<rect width="29" height="38" fill="white" transform="translate(23 19.5)"/>
</clipPath>
</defs>
</svg>
