<svg width="75" height="76" viewBox="0 0 75 76" fill="none" xmlns="http://www.w3.org/2000/svg">
<path d="M36 2.52085C36.9282 1.98495 38.0718 1.98495 39 2.52085L67.476 18.9614C68.4042 19.4973 68.976 20.4877 68.976 21.5595V54.4407C68.976 55.5125 68.4042 56.5029 67.476 57.0388L39 73.4794C38.0718 74.0153 36.9282 74.0153 36 73.4794L7.52405 57.0388C6.59585 56.5029 6.02405 55.5125 6.02405 54.4407V21.5595C6.02405 20.4877 6.59584 19.4973 7.52405 18.9614L36 2.52085Z" stroke="url(#paint0_linear_405_5)" stroke-width="2"/>
<g clip-path="url(#clip0_405_5)">
<path d="M53.2872 25.0657L50.4741 56.5798L37.829 60.0854L25.2187 56.5847L22.4085 25.0657H53.2872Z" fill="#E44D26"/>
<path d="M37.8478 57.4058L48.0657 54.5731L50.4696 27.6428H37.8478V57.4058Z" fill="#F16529"/>
<path d="M32.3792 35.3742H37.8478V31.5085H28.1545L28.247 32.5456L29.1972 43.1984H37.8478V39.3327H32.7325L32.3792 35.3742ZM33.2505 45.1313H29.3699L29.9114 51.201L37.83 53.3991L37.8478 53.3943V49.3723L37.8309 49.3768L33.5257 48.2143L33.2505 45.1313Z" fill="#EBEBEB"/>
<path d="M25.2814 16.5001H27.2459V18.441H29.043V16.5001H31.0076V22.3776H29.0431V20.4095H27.246V22.3776H25.2815V16.5001H25.2814ZM33.5908 18.4492H31.8616V16.5001H37.2859V18.4492H35.5557V22.3776H33.5912V18.4492H33.5911H33.5908ZM38.1468 16.5001H40.1951L41.4552 18.5653L42.714 16.5001H44.7632V22.3776H42.8067V19.4644L41.4552 21.5542H41.4213L40.0689 19.4644V22.3776H38.1468V16.5001ZM45.7409 16.5001H47.706V20.4349H50.4686V22.3776H45.7407V16.5001H45.7409Z" fill="black"/>
<path d="M37.8345 43.1984H42.5946L42.1458 48.2119L37.8344 49.3756V53.3973L45.7592 51.201L45.8173 50.5479L46.7259 40.3708L46.8202 39.3327H37.8345V43.1984ZM37.8345 35.3648V35.3742H47.1719L47.2494 34.5054L47.4256 32.5456L47.518 31.5085H37.8345V35.3649V35.3648Z" fill="white"/>
</g>
<defs>
<linearGradient id="paint0_linear_405_5" x1="69.6429" y1="75.5001" x2="-9.86444" y2="25.1316" gradientUnits="userSpaceOnUse">
<stop stop-color="#0D54BE"/>
<stop offset="1" stop-color="#20ECD3"/>
</linearGradient>
<clipPath id="clip0_405_5">
<rect width="43.6957" height="43.6957" fill="white" transform="translate(16 16.5001)"/>
</clipPath>
</defs>
</svg>
