<svg width="203" height="48" viewBox="0 0 203 48" fill="none" xmlns="http://www.w3.org/2000/svg">
<path d="M0 48V12H5.31247L10.0937 19.4483L15.4062 12H21.7811V48H15.4062V28.1379L10.0937 36.8276L5.31247 28.1379V48H0Z" fill="#343D68"/>
<path d="M31.3256 10.8H35.0376L37.2296 17.152H37.2776L39.4696 10.8H43.1816V22H40.7336V14.32H40.6696L38.0456 22H36.4616L33.8376 14.32H33.7736V22H31.3256V10.8ZM49.2378 10.8C50.1232 10.8 50.8698 10.9813 51.4778 11.344C52.0965 11.7067 52.5552 12.1867 52.8538 12.784C53.1525 13.3813 53.3018 14.0267 53.3018 14.72C53.3018 15.4027 53.1525 16.0373 52.8538 16.624C52.5658 17.2 52.1125 17.664 51.4938 18.016C50.8858 18.368 50.1338 18.544 49.2378 18.544H47.4298V22H44.9818V10.8H49.2378ZM48.8378 16.496C49.4138 16.496 49.8992 16.3627 50.2938 16.096C50.6885 15.8187 50.8858 15.36 50.8858 14.72C50.8858 14.08 50.6885 13.632 50.2938 13.376C49.9098 13.12 49.4245 12.992 48.8378 12.992H47.4298V16.496H48.8378ZM63.7603 10.8V22H61.2483V17.36H57.0403V22H54.5443V10.8H57.0403V15.408H61.2483V10.8H63.7603ZM70.3633 22.144C69.2433 22.144 68.294 21.888 67.5153 21.376C66.7367 20.8533 66.15 20.16 65.7553 19.296C65.3713 18.4213 65.1793 17.456 65.1793 16.4C65.1793 15.344 65.3767 14.3733 65.7713 13.488C66.166 12.6027 66.7527 11.8987 67.5313 11.376C68.31 10.8427 69.254 10.576 70.3633 10.576C71.4513 10.576 72.3793 10.8373 73.1473 11.36C73.926 11.8827 74.5073 12.592 74.8913 13.488C75.286 14.3733 75.4833 15.3493 75.4833 16.416C75.4833 17.4827 75.286 18.4533 74.8913 19.328C74.5073 20.192 73.926 20.88 73.1473 21.392C72.3793 21.8933 71.4513 22.144 70.3633 22.144ZM70.3473 19.92C71.1367 19.92 71.7447 19.584 72.1713 18.912C72.6087 18.24 72.8273 17.3973 72.8273 16.384C72.8273 15.3813 72.614 14.5333 72.1873 13.84C71.7607 13.1467 71.1473 12.8 70.3473 12.8C69.8033 12.8 69.3393 12.9653 68.9553 13.296C68.582 13.6267 68.2993 14.064 68.1073 14.608C67.926 15.152 67.8353 15.744 67.8353 16.384C67.8353 17.376 68.0487 18.2133 68.4753 18.896C68.9127 19.5787 69.5367 19.92 70.3473 19.92ZM80.6537 10.8H84.3657L86.5577 17.152H86.6057L88.7977 10.8H92.5097V22H90.0617V14.32H89.9977L87.3737 22H85.7897L83.1657 14.32H83.1017V22H80.6537V10.8ZM100.537 19.408H96.9533L96.1533 22H93.6253L97.6093 10.8H99.9293L103.881 22H101.353L100.537 19.408ZM99.9293 17.504L98.7773 13.888H98.6813L97.5613 17.504H99.9293ZM104.935 10.8H107.831L111.927 18.176H111.975V10.8H114.439V22.016H111.511L107.447 14.912H107.399V22.016H104.935V10.8ZM122.475 19.408H118.891L118.091 22H115.563L119.547 10.8H121.867L125.819 22H123.291L122.475 19.408ZM121.867 17.504L120.715 13.888H120.619L119.499 17.504H121.867ZM126.856 10.8H129.32V15.2H129.4L133.144 10.8H135.976L131.96 15.536L135.976 22H133.176L130.408 17.248L129.32 18.448V22H126.856V10.8ZM143.85 19.408H140.266L139.466 22H136.938L140.922 10.8H143.242L147.194 22H144.666L143.85 19.408ZM143.242 17.504L142.09 13.888H141.994L140.874 17.504H143.242Z" fill="#343D68"/>
<path d="M34.1656 43.096C33.5176 43.096 32.9616 42.964 32.4976 42.7C32.0416 42.428 31.6976 42.08 31.4656 41.656C31.2336 41.232 31.1176 40.788 31.1176 40.324V40.264H32.2576V40.324C32.2576 40.604 32.3216 40.884 32.4496 41.164C32.5856 41.444 32.7976 41.68 33.0856 41.872C33.3736 42.056 33.7416 42.148 34.1896 42.148C34.7176 42.148 35.1536 42.012 35.4976 41.74C35.8416 41.468 36.0136 41.1 36.0136 40.636C36.0136 40.252 35.8856 39.948 35.6296 39.724C35.3816 39.492 35.0616 39.336 34.6696 39.256L33.4456 39.028C32.0376 38.716 31.3336 37.976 31.3336 36.808C31.3336 36.328 31.4496 35.908 31.6816 35.548C31.9136 35.188 32.2336 34.912 32.6416 34.72C33.0576 34.52 33.5376 34.42 34.0816 34.42C34.6976 34.42 35.2256 34.544 35.6656 34.792C36.1056 35.04 36.4376 35.364 36.6616 35.764C36.8856 36.156 36.9976 36.564 36.9976 36.988V37.036H35.8576V37C35.8576 36.76 35.7976 36.516 35.6776 36.268C35.5656 36.012 35.3736 35.792 35.1016 35.608C34.8376 35.424 34.4856 35.332 34.0456 35.332C33.5416 35.332 33.1376 35.472 32.8336 35.752C32.5376 36.032 32.3896 36.38 32.3896 36.796C32.3896 37.148 32.5056 37.436 32.7376 37.66C32.9696 37.884 33.2856 38.036 33.6856 38.116L34.7896 38.332C36.3336 38.644 37.1056 39.4 37.1056 40.6C37.1056 41.088 36.9816 41.52 36.7336 41.896C36.4936 42.272 36.1496 42.568 35.7016 42.784C35.2536 42.992 34.7416 43.096 34.1656 43.096ZM42.2455 43.084C41.4455 43.084 40.7575 42.9 40.1815 42.532C39.6135 42.164 39.1815 41.652 38.8855 40.996C38.5895 40.34 38.4415 39.596 38.4415 38.764C38.4415 37.932 38.5895 37.188 38.8855 36.532C39.1895 35.868 39.6255 35.352 40.1935 34.984C40.7695 34.608 41.4535 34.42 42.2455 34.42C43.0295 34.42 43.7055 34.608 44.2735 34.984C44.8415 35.352 45.2735 35.864 45.5695 36.52C45.8655 37.176 46.0135 37.928 46.0135 38.776C46.0135 39.616 45.8655 40.36 45.5695 41.008C45.2735 41.656 44.8415 42.164 44.2735 42.532C43.7055 42.9 43.0295 43.084 42.2455 43.084ZM42.2335 42.124C42.7855 42.124 43.2655 41.984 43.6735 41.704C44.0815 41.416 44.3935 41.016 44.6095 40.504C44.8255 39.992 44.9335 39.408 44.9335 38.752C44.9335 38.096 44.8255 37.512 44.6095 37C44.3935 36.488 44.0815 36.088 43.6735 35.8C43.2655 35.512 42.7855 35.368 42.2335 35.368C41.6815 35.368 41.2015 35.516 40.7935 35.812C40.3855 36.1 40.0735 36.5 39.8575 37.012C39.6415 37.524 39.5335 38.104 39.5335 38.752C39.5335 39.408 39.6415 39.992 39.8575 40.504C40.0735 41.008 40.3855 41.404 40.7935 41.692C41.2015 41.98 41.6815 42.124 42.2335 42.124ZM48.5977 35.536V38.308L52.1137 38.284V39.136H48.5977V43H47.5537V34.6H52.5697V35.536H48.5977ZM59.3572 35.536H56.8852V43H55.8532V35.536H53.3812V34.6H59.3572V35.536ZM60.0877 34.6H61.1197L62.9917 41.764H63.0637L65.3917 34.6H66.3397L68.6557 41.764H68.7277L70.6117 34.6H71.6437L69.3877 43H68.0197L65.8957 36.412H65.8237L63.6997 43H62.3317L60.0877 34.6ZM76.7779 40.552H73.3579L72.4699 43H71.4139L74.5699 34.6H75.5539L78.7339 43H77.6779L76.7779 40.552ZM76.4779 39.724L75.0739 35.92H75.0259L73.6579 39.724H76.4779ZM82.5701 39.652H81.0701V43H80.0381V34.6H82.8941C83.5741 34.6 84.1301 34.724 84.5621 34.972C85.0021 35.22 85.3181 35.536 85.5101 35.92C85.7021 36.304 85.7981 36.708 85.7981 37.132C85.7981 37.716 85.6221 38.24 85.2701 38.704C84.9261 39.168 84.3861 39.464 83.6501 39.592L85.8701 43H84.7301L82.5701 39.652ZM81.0701 38.764H82.7621C83.3301 38.764 83.8101 38.64 84.2021 38.392C84.5941 38.144 84.7901 37.724 84.7901 37.132C84.7901 36.548 84.5941 36.136 84.2021 35.896C83.8101 35.656 83.3301 35.536 82.7621 35.536H81.0701V38.764ZM88.547 35.536V38.296H92.183V39.136H88.547V42.064H92.675V43H87.503V34.6H92.675V35.536H88.547ZM97.1006 34.6H100.173C100.925 34.6 101.581 34.772 102.141 35.116C102.709 35.452 103.145 35.936 103.449 36.568C103.761 37.192 103.917 37.932 103.917 38.788C103.917 39.644 103.761 40.392 103.449 41.032C103.145 41.664 102.709 42.152 102.141 42.496C101.573 42.832 100.913 43 100.161 43H97.1006V34.6ZM100.017 42.04C100.865 42.04 101.545 41.764 102.057 41.212C102.569 40.652 102.825 39.844 102.825 38.788C102.825 37.732 102.569 36.928 102.057 36.376C101.553 35.816 100.873 35.536 100.017 35.536H98.1086V42.04H100.017ZM106.383 35.536V38.296H110.019V39.136H106.383V42.064H110.511V43H105.339V34.6H110.511V35.536H106.383ZM111.439 34.6H112.495L115.039 41.956H115.111L117.655 34.6H118.699L115.795 43H114.355L111.439 34.6ZM120.926 35.536V38.296H124.562V39.136H120.926V42.064H125.054V43H119.882V34.6H125.054V35.536H120.926ZM131.67 42.064V43H126.714V34.6H127.758L127.746 42.064H131.67ZM135.902 43.084C135.102 43.084 134.414 42.9 133.838 42.532C133.27 42.164 132.838 41.652 132.542 40.996C132.246 40.34 132.098 39.596 132.098 38.764C132.098 37.932 132.246 37.188 132.542 36.532C132.846 35.868 133.282 35.352 133.85 34.984C134.426 34.608 135.11 34.42 135.902 34.42C136.686 34.42 137.362 34.608 137.93 34.984C138.498 35.352 138.93 35.864 139.226 36.52C139.522 37.176 139.67 37.928 139.67 38.776C139.67 39.616 139.522 40.36 139.226 41.008C138.93 41.656 138.498 42.164 137.93 42.532C137.362 42.9 136.686 43.084 135.902 43.084ZM135.89 42.124C136.442 42.124 136.922 41.984 137.33 41.704C137.738 41.416 138.05 41.016 138.266 40.504C138.482 39.992 138.59 39.408 138.59 38.752C138.59 38.096 138.482 37.512 138.266 37C138.05 36.488 137.738 36.088 137.33 35.8C136.922 35.512 136.442 35.368 135.89 35.368C135.338 35.368 134.858 35.516 134.45 35.812C134.042 36.1 133.73 36.5 133.514 37.012C133.298 37.524 133.19 38.104 133.19 38.752C133.19 39.408 133.298 39.992 133.514 40.504C133.73 41.008 134.042 41.404 134.45 41.692C134.858 41.98 135.338 42.124 135.89 42.124ZM144.066 34.6C144.746 34.6 145.302 34.736 145.734 35.008C146.174 35.28 146.49 35.624 146.682 36.04C146.874 36.456 146.97 36.896 146.97 37.36C146.97 37.824 146.874 38.264 146.682 38.68C146.49 39.088 146.178 39.428 145.746 39.7C145.314 39.964 144.754 40.096 144.066 40.096H142.218V43H141.21V34.6H144.066ZM143.934 39.196C144.51 39.196 144.99 39.06 145.374 38.788C145.766 38.508 145.962 38.032 145.962 37.36C145.962 36.696 145.766 36.228 145.374 35.956C144.99 35.676 144.51 35.536 143.934 35.536H142.218V39.196H143.934ZM149.473 35.536V38.296H153.109V39.136H149.473V42.064H153.601V43H148.429V34.6H153.601V35.536H149.473ZM157.793 39.652H156.293V43H155.261V34.6H158.117C158.797 34.6 159.353 34.724 159.785 34.972C160.225 35.22 160.541 35.536 160.733 35.92C160.925 36.304 161.021 36.708 161.021 37.132C161.021 37.716 160.845 38.24 160.493 38.704C160.149 39.168 159.609 39.464 158.873 39.592L161.093 43H159.953L157.793 39.652ZM156.293 38.764H157.985C158.553 38.764 159.033 38.64 159.425 38.392C159.817 38.144 160.013 37.724 160.013 37.132C160.013 36.548 159.817 36.136 159.425 35.896C159.033 35.656 158.553 35.536 157.985 35.536H156.293V38.764Z" fill="black" fill-opacity="0.47"/>
</svg>
