<svg width="25" height="22" viewBox="0 0 25 22" fill="none" xmlns="http://www.w3.org/2000/svg">
<g id="gears-svgrepo-com 1" clip-path="url(#clip0_401_8)">
<g id="Group">
<g id="bigg">
<g id="Group 15">
<path id="big-gear" d="M14.566 11.2999L13.6247 10.4443C13.7274 10.2522 13.8173 10.0548 13.8942 9.85289H15.2253C15.6627 9.85289 16.0175 9.53047 16.0175 9.13275V7.02167C16.0175 6.62402 15.6628 6.30153 15.2253 6.30153H13.8941C13.8173 6.09965 13.7273 5.90233 13.6247 5.71023L14.566 4.85447C14.8754 4.57326 14.8754 4.11728 14.566 3.83607L12.924 2.34333C12.6146 2.06219 12.1132 2.06219 11.8038 2.34333L10.8624 3.19908C10.6511 3.10579 10.4341 3.02395 10.212 2.95416V1.74395C10.212 1.3463 9.85733 1.0238 9.41984 1.0238H7.09766C6.66024 1.0238 6.3055 1.34623 6.3055 1.74395V2.95416C6.08343 3.02402 5.86638 3.10571 5.65507 3.19908L4.71382 2.34333C4.56529 2.2083 4.36376 2.13242 4.15366 2.13242C3.94356 2.13242 3.7421 2.2083 3.5935 2.34333L1.95139 3.83607C1.80287 3.97109 1.71939 4.15431 1.71939 4.34531C1.71939 4.53631 1.80287 4.71945 1.95139 4.85455L2.89273 5.71031C2.7901 5.90233 2.70008 6.09965 2.62331 6.3016H1.29216C0.854667 6.3016 0.5 6.62402 0.5 7.02167V9.13282C0.5 9.53047 0.854667 9.85297 1.29216 9.85297H2.62331C2.70024 10.0548 2.7901 10.2522 2.89281 10.4443L1.95147 11.3C1.64214 11.5812 1.64214 12.0372 1.95147 12.3184L3.5935 13.8112C3.90291 14.0922 4.40432 14.0924 4.71374 13.8112L5.65507 12.9554C5.8663 13.0488 6.08343 13.1306 6.3055 13.2004V14.4106C6.3055 14.8083 6.66016 15.1308 7.09766 15.1308H9.41992C9.85733 15.1308 10.2121 14.8083 10.2121 14.4106V13.2004C10.4341 13.1305 10.6512 13.0488 10.8625 12.9554L11.8038 13.8112C12.1133 14.0923 12.6147 14.0923 12.9241 13.8112L14.5661 12.3184C14.8754 12.0371 14.8754 11.5812 14.566 11.2999ZM12.5265 8.97172C12.4174 9.4036 12.2309 9.81286 11.9722 10.1881C11.776 10.4725 11.8222 10.8424 12.0833 11.0797L12.8857 11.8092L12.3639 12.2836L11.5614 11.5541C11.3002 11.3167 10.8935 11.275 10.5806 11.453C10.1677 11.6883 9.71762 11.8579 9.24279 11.9569C8.88287 12.032 8.62784 12.3232 8.62784 12.6588V13.6905H7.8899V12.6588C7.8899 12.3232 7.63487 12.0321 7.27495 11.9569C6.80012 11.8579 6.35002 11.6883 5.93709 11.453C5.62453 11.275 5.21749 11.3166 4.95632 11.5541L4.15382 12.2836L3.63204 11.8092L4.43446 11.0797C4.69556 10.8424 4.74162 10.4725 4.54558 10.1881C4.28683 9.81286 4.10032 9.4036 3.99123 8.97172C3.90865 8.64459 3.5884 8.41275 3.21919 8.41275H2.08424V7.74189H3.21895C3.58808 7.74189 3.90832 7.51005 3.99099 7.183C4.10016 6.75104 4.28659 6.34186 4.54533 5.96669C4.74154 5.68232 4.69539 5.31236 4.4343 5.07501L3.6318 4.34546L4.15366 3.87111L4.95608 4.60066C5.21717 4.83809 5.6242 4.87974 5.93693 4.7016C6.3497 4.46637 6.7998 4.2969 7.27471 4.1978C7.63463 4.12272 7.88966 3.83152 7.88966 3.49587V2.4641H8.6276V3.49572C8.6276 3.83137 8.88263 4.1225 9.24255 4.19765C9.71754 4.29675 10.1676 4.46623 10.5803 4.70145C10.8931 4.87975 11.3002 4.83802 11.5612 4.60052L12.3637 3.87097L12.8855 4.34531L12.0829 5.07486C11.8219 5.31229 11.7758 5.68217 11.9719 5.96654C12.2307 6.34171 12.4171 6.75097 12.5263 7.18285C12.6088 7.5099 12.9292 7.74175 13.2983 7.74175H14.433V8.4126H13.2983C12.9293 8.41267 12.6091 8.64452 12.5265 8.97172Z" fill="#E84949"/>
</g>
<path id="Vector" d="M8.25871 5.31001C6.58025 5.31001 5.21475 6.55137 5.21475 8.07725C5.21475 9.60313 6.58025 10.8445 8.25871 10.8445C9.93718 10.8445 11.3027 9.60313 11.3027 8.07725C11.3027 6.55137 9.93726 5.31001 8.25871 5.31001ZM8.25871 9.40426C7.45378 9.40426 6.79899 8.809 6.79899 8.07725C6.79899 7.34549 7.45386 6.75023 8.25871 6.75023C9.06356 6.75023 9.71843 7.34549 9.71843 8.07725C9.71843 8.809 9.06364 9.40426 8.25871 9.40426Z" fill="#E84949"/>
</g>
<g id="small">
<g id="Group 14">
<path id="small-gear" d="M23.9811 16.3324C24.3253 16.2746 24.5528 15.9743 24.4893 15.6614L24.1904 14.1882C24.1599 14.0379 24.065 13.9049 23.9267 13.8183C23.7882 13.7317 23.6175 13.6985 23.4523 13.7262L22.5731 13.8736C22.505 13.7672 22.4312 13.6639 22.3523 13.5638L22.8592 12.8945C22.9545 12.7686 22.9909 12.6135 22.9604 12.4633C22.93 12.313 22.835 12.1799 22.6966 12.0933L21.3393 11.2438C21.0513 11.0635 20.6566 11.1294 20.4581 11.3916L19.9511 12.0609C19.8201 12.0295 19.6877 12.0039 19.554 11.9839L19.3919 11.1848C19.3284 10.8719 18.9975 10.6648 18.6538 10.7228L17.0333 10.9945C16.868 11.0222 16.7216 11.1085 16.6264 11.2343C16.5311 11.3602 16.4947 11.5153 16.5251 11.6655L16.6873 12.4648C16.5702 12.5268 16.4565 12.5938 16.3465 12.6655L15.6102 12.2047C15.4717 12.1181 15.3011 12.0851 15.1359 12.1127C14.9705 12.1403 14.8242 12.2267 14.7289 12.3525L13.7945 13.5864C13.6991 13.7122 13.6627 13.8673 13.6932 14.0175C13.7237 14.1678 13.8186 14.3009 13.957 14.3875L14.6933 14.8483C14.6587 14.9675 14.6305 15.0878 14.6086 15.2094L13.7294 15.3568C13.5641 15.3845 13.4177 15.4708 13.3225 15.5966C13.2271 15.7225 13.1907 15.8776 13.2212 16.0278L13.5202 17.5009C13.5837 17.8138 13.9141 18.021 14.2583 17.9629L15.1375 17.8155C15.2056 17.9219 15.2794 18.0253 15.3583 18.1254L14.8514 18.7946C14.7562 18.9205 14.7197 19.0755 14.7502 19.2258C14.7806 19.3761 14.8756 19.5092 15.014 19.5958L16.3713 20.4453C16.6593 20.6256 17.0541 20.5596 17.2525 20.2976L17.7594 19.6282C17.8904 19.6596 18.0228 19.6853 18.1566 19.7052L18.3187 20.5044C18.3751 20.782 18.6415 20.9761 18.9412 20.9761C18.9793 20.9761 19.018 20.973 19.0568 20.9665L20.6773 20.6948C20.8426 20.6671 20.989 20.5808 21.0842 20.455C21.1795 20.3291 21.2159 20.174 21.1855 20.0238L21.0233 19.2245C21.1404 19.1625 21.2541 19.0955 21.3641 19.0237L22.1003 19.4846C22.2388 19.5712 22.4092 19.6044 22.5747 19.5766C22.74 19.5489 22.8863 19.4626 22.9816 19.3367L23.9161 18.1029C24.1145 17.8408 24.0418 17.4822 23.7536 17.3018L23.0173 16.8409C23.0519 16.7218 23.0801 16.6014 23.102 16.4799L23.9811 16.3324ZM22.4066 15.4249C22.116 15.4736 21.901 15.6984 21.8884 15.9667C21.8739 16.2734 21.8034 16.5736 21.679 16.859C21.5701 17.1086 21.6654 17.3935 21.9087 17.5458L22.5129 17.9241L22.2972 18.209L21.693 17.8308C21.4496 17.6784 21.1229 17.6992 20.9053 17.8807C20.6564 18.0883 20.373 18.2552 20.063 18.377C19.7918 18.4836 19.6375 18.7463 19.6911 19.0104L19.8242 19.6664L19.4501 19.7291L19.317 19.0732C19.2635 18.8091 19.0163 18.6137 18.7212 18.6021C18.3835 18.5888 18.0533 18.5248 17.7393 18.4117C17.6632 18.3843 17.5843 18.3712 17.5061 18.3712C17.3024 18.3712 17.105 18.4608 16.9839 18.6206L16.5679 19.1698L16.2546 18.9737L16.6706 18.4245C16.8381 18.2033 16.8153 17.9063 16.6156 17.7084C16.3873 17.4821 16.2037 17.2244 16.0696 16.9425C15.9524 16.696 15.6627 16.5557 15.373 16.6046L14.6514 16.7255L14.5823 16.3855L15.304 16.2645C15.5945 16.2158 15.8095 15.991 15.8221 15.7227C15.8366 15.416 15.9071 15.1158 16.0315 14.8302C16.1404 14.5806 16.045 14.2958 15.8017 14.1434L15.1975 13.7653L15.4133 13.4804L16.0175 13.8586C16.261 14.0111 16.5875 13.9902 16.8052 13.8087C17.0542 13.6011 17.3376 13.4342 17.6477 13.3123C17.9187 13.2057 18.073 12.943 18.0194 12.679L17.8863 12.023L18.2604 11.9603L18.3935 12.6162C18.4471 12.8804 18.6943 13.0758 18.9894 13.0873C19.3268 13.1005 19.657 13.1646 19.971 13.2777C20.2458 13.3767 20.5591 13.29 20.7265 13.0688L21.1426 12.5195L21.4559 12.7156L21.0399 13.2649C20.8724 13.4862 20.8952 13.7832 21.0949 13.9811C21.3232 14.2073 21.5069 14.4649 21.6408 14.7468C21.7579 14.9932 22.0473 15.1336 22.3375 15.0848L23.0591 14.9639L23.1281 15.3039L22.4066 15.4249Z" fill="#E84949"/>
</g>
<path id="Vector_2" d="M20.1207 14.1736C19.6298 13.8664 19.0364 13.7514 18.4503 13.8496C17.8642 13.9479 17.3552 14.2479 17.0171 14.6942C16.3193 15.6156 16.5762 16.8813 17.5897 17.5157C17.9753 17.757 18.4158 17.8727 18.8519 17.8727C19.5621 17.8727 20.261 17.5659 20.6933 16.9951C21.3911 16.0737 21.1342 14.808 20.1207 14.1736ZM19.6495 16.3417C19.348 16.7397 18.7463 16.8407 18.3085 16.5667C17.8706 16.2926 17.7596 15.7457 18.0611 15.3476C18.0612 15.3476 18.0612 15.3476 18.0612 15.3476C18.2071 15.1547 18.4271 15.0251 18.6803 14.9827C18.7393 14.9728 18.7986 14.9679 18.8573 14.9679C19.0507 14.9679 19.2394 15.0209 19.402 15.1227C19.8399 15.3968 19.951 15.9436 19.6495 16.3417Z" fill="#E84949"/>
</g>
</g>
</g>
<defs>
<clipPath id="clip0_401_8">
<rect width="24" height="21.8182" fill="white" transform="translate(0.5 0.0909119)"/>
</clipPath>
</defs>
</svg>
